<?xml version="1.0" encoding="UTF-8"?>
<!DOCTYPE svg PUBLIC "-//W3C//DTD SVG 1.1//EN" "http://www.w3.org/Graphics/SVG/1.1/DTD/svg11.dtd">
<!-- Creator: CorelDRAW 2019 (64-Bit Оценочная версия) -->
<svg xmlns="http://www.w3.org/2000/svg" xml:space="preserve" width="2480px" height="952px" version="1.1" style="shape-rendering:geometricPrecision; text-rendering:geometricPrecision; image-rendering:optimizeQuality; fill-rule:evenodd; clip-rule:evenodd"
viewBox="0 0 2480 951.87"
 xmlns:xlink="http://www.w3.org/1999/xlink">
 <defs>
  <style type="text/css">
   <![CDATA[
    .fil1 {fill:#565D65}
    .fil0 {fill:white}
   ]]>
  </style>
 </defs>
 <g id="Слой_x0020_1">
  <metadata id="CorelCorpID_0Corel-Layer"/>
  <g id="_2247197280880">
   <polygon class="fil0" points="-61.8,946.38 2544.14,946.38 2544.14,-17.22 -61.8,-17.22 "/>
   <path class="fil1" d="M205.04 414.81l0 3.18c-36,0 -63.53,-13.77 -90.01,-33.88 -3.17,-2.12 -2.11,-3.18 -4.23,-5.3 -8.47,-8.47 -9.53,-6.35 -19.06,-20.12 -7.42,-10.59 -14.83,-23.29 -20.12,-36 -21.18,-49.77 -16.94,-115.42 12.7,-160.95 21.18,-32.83 54.01,-60.36 94.25,-67.77 15.88,-2.12 25.41,0 25.41,-18 0,-1.06 -2.12,-8.48 -2.12,-9.53 -1.06,-3.18 -2.12,-5.3 -5.29,-6.36 -19.06,-10.59 -73.07,14.83 -90.01,27.53 -9.53,7.42 -18,13.77 -26.47,22.24 -2.12,2.12 -3.18,4.24 -5.3,6.35 -4.23,3.18 -3.17,3.18 -6.35,6.36 -45.53,60.36 -59.3,135.54 -31.77,207.54 9.53,27.53 24.36,49.77 41.3,67.77 28.59,32.83 82.6,56.12 127.07,56.12 1.06,31.77 0,65.65 0,97.42 0,64.59 2.12,130.25 0,195.9 -1.06,27.53 -1.06,65.65 -19.06,79.41 -15.89,13.77 -45.53,25.42 -74.12,21.18 -13.77,-2.12 -26.48,-6.35 -34.95,-13.76 -15.88,-13.77 -3.17,-21.18 3.18,-32.83 14.82,-27.53 -3.18,-58.24 -29.65,-60.36 -15.88,-1.05 -27.53,6.36 -33.89,14.83 -9.52,11.65 -10.58,23.29 -10.58,40.24 0,37.06 10.58,54 33.88,68.82 43.42,26.48 92.12,28.59 141.89,16.95 14.83,-3.18 26.48,-7.42 39.18,-13.77 9.53,-4.23 21.18,-18 26.47,-27.53 19.06,-32.83 16.95,-43.42 19.06,-86.83 1.06,-33.88 -3.17,-273.2 1.06,-280.61 7.42,-4.23 36.01,2.12 44.48,5.3 93.18,29.65 150.36,126 121.77,227.66 -14.83,50.83 -54,92.12 -95.3,113.3 -43.42,21.18 -74.12,16.94 -83.65,20.12 -4.24,2.12 -9.53,8.47 -11.65,12.71 -2.12,5.29 -4.24,11.65 -2.12,15.88 4.24,14.83 31.77,9.53 46.59,7.41 31.77,-4.23 51.89,-10.59 79.42,-25.41 66.71,-33.89 116.48,-108.01 118.6,-192.72 2.11,-86.83 -48.71,-160.95 -115.42,-198.01 -15.89,-8.47 -55.07,-24.36 -78.36,-26.48 11.65,-14.82 66.71,-77.29 83.65,-97.41l63.53 -73.07c9.53,-11.65 19.07,-22.24 28.59,-33.88 10.59,-10.59 20.12,-22.24 29.65,-33.89 8.48,-9.53 24.36,-24.35 16.95,-44.47 -6.36,-16.94 -25.42,-20.12 -41.3,-9.53 -7.41,5.29 -28.59,32.83 -37.06,42.36l-22.24 25.41c-9.53,11.65 -19.06,22.24 -28.59,33.88l-59.3 68.83c-5.29,5.3 -9.53,10.59 -14.82,16.94l-44.48 50.83 0 -97.42c1.06,-5.29 21.18,-26.47 25.42,-32.82 21.18,-23.3 40.24,-46.6 61.41,-69.89l43.42 -50.83c6.35,-7.41 15.88,-14.82 21.18,-24.35 13.76,-25.42 -24.36,-57.18 -42.36,-34.95l-76.24 88.95c-3.18,4.24 -7.41,8.47 -10.59,12.71 -3.18,4.23 -18,22.23 -22.24,25.41l0 -110.12c0,-13.77 1.06,-23.3 -6.35,-31.77 -5.29,-5.3 -13.76,-12.71 -22.24,-13.77 -9.53,-1.06 -29.64,12.71 -30.7,24.36 -1.06,6.35 -1.06,10.59 -1.06,18 0,11.65 -1.06,23.29 -1.06,36 0,98.48 0,196.96 0,296.49z"/>
   <path class="fil1" d="M1568.9 570.47c-3.18,-2.12 -10.59,-14.82 -21.18,-24.35 -10.59,-9.53 -9.53,-10.59 -25.42,-21.18 -58.23,-38.12 -141.89,-20.12 -185.3,31.76 -7.41,7.42 -11.65,12.71 -18,22.24 -36.01,58.24 -34.95,132.36 0,191.66 41.29,67.77 130.24,97.42 202.24,55.07 9.54,-5.3 19.07,-12.71 25.42,-19.07 6.35,-7.41 11.65,-10.58 16.94,-18l3.18 -4.23c2.12,-1.06 1.06,-1.06 2.12,-2.12l0 55.06 39.18 0c0,-148.24 -1.06,-301.78 0,-448.97l-39.18 0 0 182.13z"/>
   <path class="fil1" d="M1958.57 783.31l0 54 38.12 0 0 -324.02 -38.12 0 0 58.24c-8.47,-8.47 -11.65,-16.94 -30.71,-33.88 -9.53,-9.54 -22.24,-18.01 -39.18,-24.36 -33.88,-12.71 -74.12,-11.65 -106.95,2.12 -61.41,26.47 -99.53,88.94 -99.53,157.77 -1.06,38.12 9.53,73.07 27.53,99.54 14.82,23.3 38.12,47.65 67.77,60.36 63.53,27.53 129.18,8.47 172.6,-41.3 2.12,-2.12 5.29,-7.41 8.47,-8.47z"/>
   <path class="fil1" d="M1223.7 748.36l-32.83 -19.05c-3.18,4.23 -14.82,23.29 -22.24,32.82 -39.18,51.89 -129.18,66.71 -181.07,-1.06 -7.41,-9.53 -13.76,-21.17 -18,-34.94 -4.23,-10.59 -9.53,-36.01 -7.41,-47.65l271.08 0c0,-23.3 -3.18,-45.53 -9.53,-66.71 -19.06,-55.07 -64.6,-97.42 -123.89,-105.89 -31.77,-4.24 -67.77,1.06 -95.3,16.94 -80.48,45.53 -105.89,155.66 -61.42,240.37 15.88,31.77 42.35,60.36 80.47,73.06 40.24,14.83 92.13,11.65 127.07,-7.41 19.06,-9.53 29.65,-20.12 42.36,-33.88 8.47,-8.47 25.41,-33.89 30.71,-46.6z"/>
   <path class="fil1" d="M657.19 219.98c10.59,3.17 19.06,2.11 29.65,5.29 8.47,2.12 18,4.24 26.47,7.41 10.59,3.18 10.59,9.53 12.71,21.18 7.41,39.18 4.23,122.83 4.23,165.19 0,44.47 0,90 0,135.54 0,49.76 3.18,148.24 -8.47,194.83 -6.35,20.12 -13.77,32.83 -26.47,42.36 -13.77,10.59 -27.53,18 -50.83,16.94 -16.94,-1.06 -41.3,-14.82 -30.71,-33.88 5.3,-8.47 20.12,-6.36 24.36,-43.42 3.17,-20.12 -1.06,-41.3 -9.53,-56.12 -4.24,-6.35 -10.59,-12.71 -19.06,-15.88 -7.41,-2.12 -22.24,0 -28.59,4.23 -45.54,22.24 -40.24,105.89 -8.48,147.19 22.24,29.65 57.19,43.41 95.31,37.06 122.83,-21.18 117.53,-193.78 117.53,-290.14 0,-45.53 0,-91.06 0,-136.59 0,-44.48 -2.11,-92.13 0,-135.54 4.24,-69.89 9.53,-57.18 72.01,-64.59l0 -25.42 -200.13 0 0 24.36z"/>
   <path class="fil0" d="M1824.09 546.12c-69.89,11.64 -109.07,80.47 -101.65,146.12 8.47,64.6 62.47,123.89 135.53,113.31 90.01,-13.77 126.01,-117.54 87.89,-194.84 -12.7,-26.47 -38.12,-49.77 -65.65,-59.3 -16.94,-5.29 -37.06,-7.41 -56.12,-5.29z"/>
   <path class="fil0" d="M1435.47 546.12c-19.05,3.17 -30.7,8.47 -44.47,16.94 -40.24,25.41 -63.53,79.41 -57.18,129.18 7.41,63.54 61.42,123.89 134.48,113.31 65.65,-9.53 110.13,-69.89 102.72,-146.13 -2.12,-20.12 -6.36,-32.83 -13.77,-48.71 -4.24,-7.41 -13.77,-21.18 -20.12,-27.53 -2.12,-2.12 -4.24,-4.24 -7.41,-7.41 -4.24,-5.3 -11.65,-9.54 -16.94,-13.77 -22.24,-13.77 -50.83,-20.12 -77.31,-15.88z"/>
   <path class="fil1" d="M2123.76 569.41l0 -56.12 -39.18 0 0 324.02 39.18 0c-1.06,-38.12 -1.06,-157.77 2.11,-190.6 3.18,-23.29 12.71,-50.83 28.6,-67.77 14.82,-14.82 31.76,-30.71 61.41,-34.94 32.83,-4.24 58.24,7.41 72.01,24.35 15.88,20.12 19.06,45.54 20.12,76.24 3.17,62.48 1.05,129.19 1.05,192.72l39.18 0c1.06,-51.88 0,-103.77 0,-154.6 0,-46.59 -1.06,-98.47 -24.35,-132.36 -42.36,-62.47 -130.24,-58.24 -182.13,-2.12 -3.18,3.18 -5.3,6.36 -8.47,9.53l-9.53 11.65z"/>
   <path class="fil0" d="M965.33 641.42l224.48 1.05c-9.53,-57.17 -56.12,-97.41 -112.24,-97.41 -63.53,0 -97.42,42.35 -112.24,96.36z"/>
   <polygon class="fil1" points="2425.54,837.31 2464.72,837.31 2464.72,513.29 2425.54,513.29 "/>
   <path class="fil1" d="M2440.37 395.75c-41.3,7.42 -29.65,73.07 10.59,65.65 38.12,-8.47 28.59,-72 -10.59,-65.65z"/>
   <path class="fil1" d="M331.05 751.54c-19.06,7.41 0,39.18 19.06,32.83 18,-5.3 -1.06,-39.18 -19.06,-32.83z"/>
   <path class="fil1" d="M390.34 617.06c-24.35,6.36 -9.53,32.83 13.77,26.47 25.41,-5.29 10.59,-32.82 -13.77,-26.47z"/>
   <path class="fil1" d="M385.05 697.54c-25.41,5.29 -9.53,31.77 14.83,25.41 22.23,-5.29 9.53,-31.77 -14.83,-25.41z"/>
   <path class="fil1" d="M353.28 537.65c-25.41,10.58 -16.94,38.12 4.24,29.64 22.24,-9.53 19.06,-39.18 -4.24,-29.64z"/>
   <path class="fil1" d="M90.68 272.92c-21.18,4.24 -11.65,27.53 9.53,23.3 19.06,-5.3 9.53,-28.59 -9.53,-23.3z"/>
   <path class="fil1" d="M90.68 200.92c-20.12,5.29 -11.65,28.59 8.47,24.35 20.12,-4.23 11.65,-28.59 -8.47,-24.35z"/>
   <path class="fil1" d="M135.15 336.46c-18,4.23 -22.23,32.82 -3.18,29.64 15.89,-3.17 22.24,-33.88 3.18,-29.64z"/>
   <path class="fil1" d="M125.62 143.73c-15.88,6.36 0,34.95 15.89,29.66 7.41,-3.18 5.29,-14.83 2.11,-20.12 -2.11,-4.24 -9.53,-11.65 -18,-9.54z"/>
  </g>
 </g>
</svg>
